<svg width="18" height="17" viewBox="0 0 18 17" fill="none" xmlns="http://www.w3.org/2000/svg">
    <path
        d="M5.88027 0.698883C7.1607 0.698883 8.42575 1.18101 9.39984 2.01674C10.3741 1.18095 11.6392 0.698883 12.9197 0.698883C15.7684 0.698883 18 2.93047 18 5.77926C18 9.22287 15.6024 11.3277 11.9733 14.5137C11.6631 14.786 11.3429 15.067 11.0135 15.3584C11.0113 15.3604 11.009 15.3624 11.0067 15.3644L9.91095 16.3109C9.76415 16.4377 9.58194 16.5011 9.39974 16.5011C9.21754 16.5011 9.03533 16.4377 8.88847 16.3108L7.79296 15.3643C7.79067 15.3623 7.78842 15.3603 7.78613 15.3584C5.6171 13.44 3.99078 11.9715 2.81425 10.5392C1.44003 8.86639 0.799948 7.35387 0.799948 5.77926C0.799999 2.93047 3.03154 0.698883 5.88027 0.698883Z"
        fill="#002147" />
    <!--url(#paint0_linear_13_1441)-->
    <defs>
        <linearGradient id="paint0_linear_13_1441" x1="9.39997" y1="0.698883" x2="9.39997"
            y2="16.5011" gradientUnits="userSpaceOnUse">
            <stop stop-color="#000133" />
            <stop offset="1" stop-color="#002147" />
        </linearGradient>
    </defs>
</svg>
