<svg width="176" height="181" viewBox="0 0 176 181" fill="none" xmlns="http://www.w3.org/2000/svg">
<path d="M154.948 23.77C139.518 8.5 118.768 0 96.9277 0V8.81C116.458 8.81 134.828 16.35 148.658 30.03L154.948 23.77Z" fill="white"/>
<path d="M145.058 141.2L151.388 147.46C168.108 130.92 176.738 108.27 175.258 84.9201C174.048 65.8601 166.078 47.1601 151.388 32.6201L145.058 38.8401C157.128 49.7801 164.788 68.4101 166.228 84.5301C168.148 105.41 160.028 126.43 145.058 141.2Z" fill="white"/>
<path d="M93.3374 17.6601V8.81006C72.3574 8.81006 51.3374 16.7701 35.3174 32.6201L41.6074 38.8401C55.4374 25.2001 73.8074 17.6601 93.3374 17.6601Z" fill="white"/>
<path d="M32.8575 34.4001L26.0175 27.6001C-8.6725 61.9201 -8.6725 118.16 26.0175 152.49L32.8575 145.69C1.7975 114.95 1.7975 65.1301 32.8575 34.4001Z" fill="white"/>
<path d="M96.9277 171.23V180.08C117.908 180.08 138.928 172.12 154.938 156.27L148.648 150.05C134.828 163.69 116.468 171.23 96.9277 171.23Z" fill="white"/>
<path d="M41.6074 141.2L35.3174 147.46C51.3374 163.31 72.3574 171.23 93.3374 171.23V162.42C73.8074 162.42 55.4374 154.88 41.6074 141.2Z" fill="white"/>
<path d="M134.628 130.88C157.288 108.42 157.288 71.6299 134.628 49.2099L145.057 38.8499C131.267 25.2099 112.907 17.6699 93.3275 17.6699V32.3199C77.2275 32.3199 62.6175 38.7799 52.0675 49.2099L41.6075 38.8499C13.0475 67.1399 13.0475 112.95 41.6075 141.2L52.0775 130.88C62.6275 141.32 77.2375 147.77 93.3375 147.77V162.42C112.907 162.42 131.268 154.88 145.068 141.2L134.628 130.88Z" fill="white"/>
<path d="M148.647 28.8701C134.927 15.5901 116.917 8.20008 97.7568 7.99008V0.830078C118.867 1.04008 138.697 9.16008 153.767 23.7801L148.647 28.8701Z" fill="white"/>
<path d="M167.057 84.46C167.367 87.88 167.407 91.32 167.197 94.75C169.557 95.92 171.867 97.17 174.137 98.51C174.617 94.05 174.727 89.52 174.437 84.98C173.217 65.72 165.037 47.57 151.387 33.79L146.257 38.83C157.367 49.28 165.497 67.07 167.057 84.46Z" fill="white"/>
<path d="M36.4971 32.6301C51.5971 17.9901 71.4271 9.85014 92.5071 9.64014V16.8401C73.3571 17.0501 55.3471 24.4201 41.6071 37.6901L36.4971 32.6301Z" fill="white"/>
<path d="M23.4471 135.92C13.8971 122.6 8.73715 106.71 8.73715 90.0403C8.73715 69.0803 16.8771 49.3503 31.6871 34.4003L26.0171 28.7603C9.76715 45.1403 0.827148 66.8703 0.827148 90.0403C0.827148 109.71 7.27715 128.34 19.1671 143.54C20.4971 140.95 21.9171 138.4 23.4471 135.92Z" fill="white"/>
<path d="M39.4676 115.57C60.1576 94.8802 88.5676 83.1102 117.848 83.1102C129.078 83.1102 140.168 84.8502 150.758 88.1502C150.288 73.6002 144.408 60.0402 134.058 49.8002L133.468 49.2102L143.898 38.8502C130.518 25.9002 112.918 18.7002 94.1776 18.4902V33.1302H93.3476C77.9676 33.1302 63.5276 39.0402 52.6776 49.7802L52.0976 50.3502L41.6176 40.0102C28.3176 53.4802 21.0176 71.2202 21.0176 90.0602C21.0176 102.74 24.3576 114.92 30.5776 125.62C33.3276 122.11 36.2876 118.75 39.4676 115.57Z" fill="white"/>
<path d="M85.6373 63.41C95.1473 68.26 113.647 78.97 122.657 84.78C130.287 89.7 130.157 100.1 122.657 105.21C113.837 111.22 95.2773 121.83 85.6373 126.58C77.4973 130.6 67.9973 125.44 67.9473 116.37C67.8873 105.68 67.8773 84.31 67.9473 73.62C68.0073 64.54 77.5473 59.29 85.6373 63.41Z" fill="#002147" fill-opacity="0.16"/>
<path d="M85.6379 58.4502C95.1479 63.3002 113.648 74.0102 122.658 79.8202C130.288 84.7402 130.158 95.1402 122.658 100.25C113.838 106.26 95.2779 116.87 85.6379 121.62C77.4979 125.64 67.9479 120.48 67.9479 111.41C67.9479 100.72 67.8279 79.3502 67.9479 68.6602C68.0479 59.5902 77.5479 54.3302 85.6379 58.4502Z" fill="#002147"/>
</svg>
