<svg width="53" height="53" viewBox="0 0 53 53" fill="none" xmlns="http://www.w3.org/2000/svg">
<path d="M45.2384 7.7616C40.2331 2.75655 33.5784 0 26.5 0C19.4216 0 12.7669 2.75655 7.7616 7.7616C2.75655 12.7669 0 19.4216 0 26.5C0 33.5784 2.75655 40.2331 7.7616 45.2384C12.7669 50.2435 19.4216 53 26.5 53C33.5784 53 40.2331 50.2435 45.2384 45.2384C50.2435 40.2331 53 33.5784 53 26.5C53 19.4216 50.2435 12.7669 45.2384 7.7616ZM26.5 49.7216C13.6955 49.7216 3.27835 39.3045 3.27835 26.5C3.27835 13.6955 13.6955 3.27835 26.5 3.27835C39.3045 3.27835 49.7216 13.6955 49.7216 26.5C49.7216 39.3045 39.3045 49.7216 26.5 49.7216Z" fill="white"/>
<path d="M19.7861 36.7804L37.585 26.5L19.7861 16.2197V36.7804Z" fill="white"/>
</svg>
