<svg width="32" height="32" viewBox="0 0 32 32" fill="none" xmlns="http://www.w3.org/2000/svg">
<path d="M27.1027 6.50631C25.768 5.50686 24.2952 5 22.7252 5C20.7442 5 18.6044 5.8305 16.5 7.40976C14.3956 5.8305 12.2558 5 10.2748 5C8.70479 5 7.23201 5.50686 5.89733 6.50631C3.94455 7.96883 2.97015 9.81439 3.0007 11.9916C3.10576 19.4472 15.4313 28.2445 15.9559 28.6154L16.5 29L17.0441 28.6154C17.5688 28.2445 29.8944 19.4472 29.9993 11.9916C30.0299 9.81439 29.0555 7.96883 27.1027 6.50631ZM22.1046 21.9177C19.8227 24.1721 17.5201 25.9663 16.5 26.7305C15.4799 25.9663 13.1773 24.1722 10.8954 21.9177C6.98598 18.0554 4.9002 14.6139 4.86344 11.9653C4.84133 10.3779 5.54909 9.06819 7.02697 7.96139C8.02956 7.21043 9.12231 6.8297 10.2748 6.8297C12.456 6.8297 14.5393 8.16377 15.9028 9.28289L16.5 9.77304L17.0972 9.28289C18.4607 8.16377 20.544 6.8297 22.7252 6.8297C23.8777 6.8297 24.9704 7.21043 25.973 7.96139C27.4509 9.06819 28.1587 10.3779 28.1366 11.9653C28.0998 14.614 26.0139 18.0554 22.1046 21.9177Z" fill="#8A8A8A"/>
</svg>
